<?xml version="1.0" encoding="UTF-8"?>
<svg xmlns="http://www.w3.org/2000/svg" version="1.1" viewBox="0 0 280 240">
     <path fill="#0036EF" d="M133.04 171.39l67.41 -48.75c3.81,-2.75 7.82,-5.82 11.7,-9.16 4.48,0.35 2.67,1.32 8.11,4.03l4.3 3.96 6.92 10.6c1.77,1.82 2.83,4.73 3.2,7.15l1.73 6.24c0.62,4.07 1.32,0.93 1.66,7.59 0.29,5.73 1.77,5.9 1.07,12.77 -0.25,2.43 -1.38,6.81 -2.92,8.68 -1.04,1.26 -1.7,2.63 -2.04,4.01 -1.16,0.81 -2.29,1.61 -3.37,2.39l-67.29 48.78c-21.4,15.52 -40.28,4.72 -40.34,-17.02l-0.05 -19.08c-0.02,-8.27 4.45,-18.24 9.91,-22.19z"/>
    <path fill="#0053FE" d="M133.86 67.91l67.42 48.76c23.18,16.76 54.2,45.38 16.01,73.61l27.04 -18.75c26.22,-18.17 22.34,-38.52 22.13,-76.35 -0.07,-14.53 -21.13,-26.85 -34.83,-36.78l-67.29 -48.78c-21.39,-15.52 -40.27,-4.72 -40.33,17.02l-0.06 19.08c-0.02,8.27 4.46,18.24 9.91,22.19z"/>
    <path fill="#0036EF" d="M37.6 103.5c5.99,-4.23 49.9,-37.29 53.37,-37.29 11.33,-4.2 22.51,0.41 26.01,12.28l1.08 20.81c0.02,6.51 -3.31,15.11 -8.71,19.02l-46.64 33.74 -25.71 -23.06 0.6 -25.5z"/>
    <path fill="#0053FE" d="M46.94 96.65c-18.48,19.77 -1.73,39.8 15.48,52.59l46.91 33.93c5.4,3.92 8.73,12.49 8.71,19.02l-1.08 20.8c-0.45,8.6 -7.38,13.22 -15.38,13.81 -6.92,0.52 -13.13,-1.89 -18.65,-5.9l-65.33 -48.15c-4.41,-4.41 -7.53,-9.34 -7.55,-14.96 -0.06,-11.37 -1.31,-25.37 1.64,-36.1 2.17,-7.88 6.64,-14.43 15.66,-20.68l19.59 -14.36z"/>
</svg>
