<?xml version="1.0" encoding="UTF-8"?>
<svg xmlns="http://www.w3.org/2000/svg" xml:space="preserve" version="1.1" viewBox="0 0 810 240">
    <path fill="#0036EF" d="M133.04 171.39l67.41 -48.75c3.81,-2.75 7.82,-5.82 11.7,-9.16 4.48,0.35 2.67,1.32 8.11,4.03l4.3 3.96 6.92 10.6c1.77,1.82 2.83,4.73 3.2,7.15l1.73 6.24c0.62,4.07 1.32,0.93 1.66,7.59 0.29,5.73 1.77,5.9 1.07,12.77 -0.25,2.43 -1.38,6.81 -2.92,8.68 -1.04,1.26 -1.7,2.63 -2.04,4.01 -1.16,0.81 -2.29,1.61 -3.37,2.39l-67.29 48.78c-21.4,15.52 -40.28,4.72 -40.34,-17.02l-0.05 -19.08c-0.02,-8.27 4.45,-18.24 9.91,-22.19z"/>
    <path fill="#0053FE" d="M133.86 67.91l67.42 48.76c23.18,16.76 54.2,45.38 16.01,73.61l27.04 -18.75c26.22,-18.17 22.34,-38.52 22.13,-76.35 -0.07,-14.53 -21.13,-26.85 -34.83,-36.78l-67.29 -48.78c-21.39,-15.52 -40.27,-4.72 -40.33,17.02l-0.06 19.08c-0.02,8.27 4.46,18.24 9.91,22.19z"/>
    <path fill="#0036EF" d="M37.6 103.5c5.99,-4.23 49.9,-37.29 53.37,-37.29 11.33,-4.2 22.51,0.41 26.01,12.28l1.08 20.81c0.02,6.51 -3.31,15.11 -8.71,19.02l-46.64 33.74 -25.71 -23.06 0.6 -25.5z"/>
    <path fill="#0053FE" d="M46.94 96.65c-18.48,19.77 -1.73,39.8 15.48,52.59l46.91 33.93c5.4,3.92 8.73,12.49 8.71,19.02l-1.08 20.8c-0.45,8.6 -7.38,13.22 -15.38,13.81 -6.92,0.52 -13.13,-1.89 -18.65,-5.9l-65.33 -48.15c-4.41,-4.41 -7.53,-9.34 -7.55,-14.96 -0.06,-11.37 -1.31,-25.37 1.64,-36.1 2.17,-7.88 6.64,-14.43 15.66,-20.68l19.59 -14.36z"/>
    <path fill="#FFF" d="M387.72 235.07l-8.14 0 -9.83 -13.66c-0.61,0.52 -1.23,1.03 -1.86,1.53 -1.44,1.13 -2.93,2.24 -4.48,3.32 -1.54,1.08 -3.12,2.1 -4.74,3.04 -1.61,0.93 -3.28,1.8 -5.01,2.59 -1.72,0.8 -3.44,1.52 -5.15,2.14 -1.8,0.65 -3.57,1.2 -5.32,1.65 -0.85,0.22 -1.71,0.42 -2.58,0.59 -6.26,0.75 -12.62,0.75 -19.1,0 -0.34,-0.06 -0.69,-0.12 -1.03,-0.18 -3.82,-0.69 -7.49,-1.71 -11,-3.05 -3.55,-1.35 -6.87,-3.01 -9.97,-4.97 -3.13,-1.98 -6.02,-4.26 -8.68,-6.85 -2.68,-2.6 -5.06,-5.49 -7.16,-8.66 -2.08,-3.15 -3.88,-6.59 -5.41,-10.32l-0.01 -0.01c-1.52,-3.73 -2.66,-7.73 -3.43,-11.99 -0.77,-4.26 -1.15,-8.72 -1.15,-13.39 0,-4.38 0.38,-8.61 1.15,-12.69 0.76,-4.07 1.91,-7.97 3.44,-11.69 1.53,-3.7 3.32,-7.15 5.4,-10.33l0 -0.01c2.08,-3.19 4.46,-6.12 7.14,-8.82 2.65,-2.67 5.53,-5.04 8.64,-7.12 3.11,-2.08 6.43,-3.86 9.97,-5.33 3.54,-1.48 7.21,-2.59 11,-3.34 3.78,-0.74 7.67,-1.11 11.65,-1.11 1.83,0 3.7,0.12 5.62,0.37 1.89,0.24 3.73,0.58 5.54,1.04l0.02 0.01c1.83,0.47 3.62,1.03 5.36,1.67 1.74,0.63 3.47,1.36 5.21,2.19 1.7,0.82 3.36,1.7 4.97,2.64 1.62,0.95 3.19,1.98 4.73,3.08 1.48,1.04 2.96,2.17 4.41,3.36 0.68,0.56 1.36,1.13 2.02,1.72l9.76 -11.71 5.99 0 0 -0.2 10.72 0 8.2 9.47c1.75,-1.42 3.56,-2.72 5.46,-3.89 2.67,-1.65 5.49,-3.06 8.47,-4.21 2.99,-1.15 6.04,-2.03 9.17,-2.61 3.15,-0.59 6.34,-0.88 9.56,-0.88 3.48,0 6.91,0.34 10.27,1.02 3.32,0.67 6.54,1.68 9.64,3.03 3.12,1.34 6.04,2.92 8.75,4.75 2.71,1.84 5.23,3.93 7.57,6.29 2.32,2.34 4.4,4.88 6.24,7.62 1.83,2.74 3.43,5.68 4.79,8.83l0.01 0.01c1.35,3.16 2.35,6.4 3.01,9.73 0.67,3.34 1,6.78 1,10.31l0 65.02 -33.28 0 0 -65.02c0,-1.28 -0.12,-2.48 -0.35,-3.61 -0.23,-1.15 -0.58,-2.29 -1.06,-3.4 -0.49,-1.12 -1.05,-2.16 -1.69,-3.12 -0.63,-0.93 -1.36,-1.83 -2.2,-2.67l0 -0.01c-0.84,-0.82 -1.73,-1.55 -2.67,-2.19 -0.95,-0.64 -1.98,-1.21 -3.09,-1.7 -1.12,-0.47 -2.23,-0.83 -3.36,-1.06l-0.01 0c-1.11,-0.22 -2.3,-0.34 -3.57,-0.34 -1.27,0 -2.51,0.12 -3.69,0.35 -1.19,0.24 -2.35,0.6 -3.47,1.06 -1.14,0.49 -2.19,1.06 -3.15,1.7 -0.97,0.64 -1.87,1.37 -2.7,2.18 -0.81,0.83 -1.54,1.73 -2.18,2.68 -0.65,0.97 -1.22,2.01 -1.71,3.12 -0.47,1.11 -0.82,2.25 -1.06,3.4 -0.22,1.13 -0.34,2.33 -0.34,3.61l0 65.02 -31.25 0zm375.72 1.2c-6.38,1.02 -13.19,0.68 -20.11,0 -4.31,-0.74 -8.48,-1.96 -12.49,-3.65 -3.54,-1.49 -6.85,-3.28 -9.94,-5.35 -3.12,-2.1 -6,-4.49 -8.65,-7.16 -2.66,-2.67 -5.03,-5.6 -7.13,-8.79 -2.09,-3.19 -3.9,-6.61 -5.41,-10.25 -1.53,-3.68 -2.68,-7.54 -3.44,-11.6 -0.77,-4.05 -1.15,-8.25 -1.15,-12.62 0,-4.44 0.38,-8.72 1.15,-12.84 0.76,-4.12 1.91,-8.05 3.44,-11.78 1.53,-3.74 3.33,-7.2 5.4,-10.36 2.09,-3.19 4.47,-6.12 7.15,-8.78 2.66,-2.64 5.54,-5 8.65,-7.05 3.09,-2.04 6.41,-3.79 9.95,-5.25 3.55,-1.46 7.22,-2.56 10.98,-3.28 3.8,-0.73 7.69,-1.1 11.67,-1.1 2.36,0 4.71,0.14 7.04,0.43 2.32,0.28 4.64,0.72 6.95,1.29 2.28,0.56 4.51,1.26 6.68,2.08 2.16,0.82 4.27,1.77 6.31,2.84 2.03,1.06 4,2.24 5.9,3.53 1.91,1.3 3.76,2.74 5.56,4.3 1.77,1.53 3.45,3.18 5.03,4.92 1.57,1.75 3.03,3.58 4.38,5.51l1.2 1.73 -50.33 60.63c0.42,0.02 0.84,0.03 1.28,0.03 1.25,0 2.45,-0.09 3.6,-0.25 1.2,-0.17 2.36,-0.42 3.48,-0.75 1.11,-0.34 2.21,-0.75 3.27,-1.24 1.02,-0.47 2.05,-1.03 3.06,-1.67l0.02 -0.01c1,-0.63 1.94,-1.32 2.81,-2.06 0.88,-0.76 1.7,-1.58 2.46,-2.46l0.01 -0.01c0.76,-0.89 1.48,-1.85 2.13,-2.87 0.63,-1 1.19,-2.03 1.66,-3.1l1.64 -3.7 24.83 24.96 -1.33 1.89c-1.35,1.91 -2.8,3.73 -4.34,5.44 -1.55,1.71 -3.21,3.35 -4.99,4.91l-0.01 0.01c-1.76,1.52 -3.58,2.93 -5.47,4.21 -1.91,1.3 -3.9,2.5 -5.95,3.58l-0.03 0.01c-2.05,1.06 -4.17,2.01 -6.34,2.83l-0.01 0c-2.13,0.8 -4.32,1.47 -6.55,2.01 -1.34,0.33 -2.68,0.61 -4.02,0.84zm-406.48 -59.42c0,-1.72 -0.16,-3.41 -0.49,-5.07 -0.33,-1.66 -0.83,-3.31 -1.49,-4.93 -0.66,-1.62 -1.45,-3.16 -2.36,-4.6 -0.89,-1.42 -1.91,-2.77 -3.06,-4.02l0.01 -0.01c-1.14,-1.23 -2.38,-2.36 -3.71,-3.36 -1.32,-0.99 -2.74,-1.86 -4.27,-2.6l-0.03 -0.02c-1.45,-0.73 -2.98,-1.28 -4.58,-1.65 -1.57,-0.37 -3.21,-0.55 -4.92,-0.55 -1.74,0 -3.42,0.14 -5.04,0.43 -1.61,0.28 -3.16,0.71 -4.67,1.28 -1.52,0.61 -2.92,1.32 -4.2,2.15 -1.27,0.83 -2.48,1.8 -3.61,2.93 -1.1,1.13 -2.07,2.37 -2.92,3.73l0 0c-0.87,1.4 -1.64,2.95 -2.28,4.64l-0.01 0.01c-0.65,1.66 -1.14,3.46 -1.47,5.4 -0.32,1.93 -0.49,4.02 -0.49,6.24 0,2.24 0.17,4.33 0.49,6.27 0.33,1.94 0.82,3.74 1.47,5.41 0.65,1.68 1.41,3.23 2.3,4.64l0 0.01c0.84,1.35 1.81,2.58 2.91,3.69l0 0c1.14,1.14 2.35,2.12 3.62,2.95 1.3,0.84 2.68,1.55 4.16,2.12 1.56,0.59 3.14,1.03 4.73,1.32 1.58,0.29 3.25,0.44 5.01,0.44 1.71,0 3.35,-0.19 4.92,-0.55 1.6,-0.38 3.13,-0.93 4.58,-1.65l0.01 -0.01c1.54,-0.76 2.97,-1.64 4.29,-2.63 1.31,-0.98 2.54,-2.1 3.7,-3.35 1.16,-1.28 2.19,-2.62 3.07,-4.03 0.88,-1.41 1.67,-2.95 2.35,-4.63l0.01 -0.01c0.65,-1.58 1.15,-3.22 1.48,-4.89 0.33,-1.66 0.49,-3.36 0.49,-5.1zm198.85 58.22c-3.49,0 -6.92,-0.34 -10.28,-1.02 -3.38,-0.68 -6.63,-1.7 -9.73,-3.03 -3.11,-1.33 -6.02,-2.92 -8.75,-4.76 -2.75,-1.86 -5.3,-3.96 -7.64,-6.31 -2.34,-2.34 -4.43,-4.88 -6.28,-7.62 -1.83,-2.7 -3.42,-5.61 -4.78,-8.72l-0.01 -0.02c-1.34,-3.13 -2.35,-6.36 -3.01,-9.68 -0.67,-3.34 -1,-6.79 -1,-10.32l0 -29.59 -13.54 0 0 -33.22 13.54 0 0 -43.53 33.21 0 0 43.53 42.08 0 0 33.22 -42.08 0 0 29.59c0,1.3 0.11,2.53 0.34,3.7 0.23,1.17 0.58,2.32 1.04,3.43 0.48,1.08 1.05,2.11 1.7,3.09 0.64,0.94 1.37,1.83 2.19,2.64 0.86,0.86 1.75,1.62 2.69,2.25 0.96,0.65 2.01,1.23 3.16,1.72l0.02 0.01c1.1,0.48 2.25,0.84 3.43,1.07 1.15,0.24 2.39,0.36 3.7,0.36l23.81 0 0 33.21 -23.81 0zm61.46 0l-30.51 0 0 -157.82 33.28 0 0 45.77c0.35,-0.2 0.7,-0.39 1.05,-0.57 1.85,-0.96 3.74,-1.74 5.67,-2.31 1.91,-0.56 3.82,-0.98 5.75,-1.26 1.95,-0.28 3.9,-0.42 5.83,-0.42 3.51,0 6.96,0.34 10.35,1.02 3.33,0.67 6.56,1.68 9.66,3.03 3.1,1.33 6.01,2.91 8.74,4.76 2.73,1.85 5.25,3.95 7.56,6.29 2.32,2.35 4.38,4.9 6.2,7.65 1.81,2.71 3.39,5.65 4.74,8.79l0.01 0.01c1.35,3.16 2.36,6.4 3.02,9.73 0.67,3.34 1,6.78 1,10.31l0 65.02 -33.5 0 0 -67.8 0.02 0c-0.05,-0.28 -0.1,-0.56 -0.15,-0.83 -0.23,-1.15 -0.59,-2.29 -1.06,-3.4 -0.49,-1.12 -1.05,-2.16 -1.69,-3.12 -0.63,-0.93 -1.36,-1.83 -2.2,-2.67l0 -0.01c-0.84,-0.82 -1.73,-1.55 -2.68,-2.19 -0.94,-0.64 -1.97,-1.21 -3.09,-1.7 -1.11,-0.47 -2.23,-0.83 -3.35,-1.06l-0.01 0c-1.12,-0.22 -2.31,-0.34 -3.57,-0.34 -1.28,0 -2.51,0.12 -3.69,0.35 -1.2,0.24 -2.36,0.6 -3.48,1.06 -1.14,0.49 -2.19,1.06 -3.15,1.7 -0.96,0.64 -1.86,1.37 -2.69,2.18 -0.81,0.83 -1.54,1.73 -2.18,2.68 -0.65,0.97 -1.22,2.01 -1.71,3.12 -0.47,1.11 -0.83,2.25 -1.06,3.4 -0.23,1.13 -0.34,2.33 -0.34,3.61l0 65.02 -2.77 0zm139.18 -84.91c-0.36,-0.03 -0.72,-0.06 -1.08,-0.08 -0.51,-0.03 -1.14,-0.04 -1.86,-0.04 -3.43,0 -6.66,0.62 -9.67,1.86 -1.51,0.64 -2.91,1.39 -4.2,2.26 -1.28,0.87 -2.49,1.89 -3.62,3.04 -1.11,1.16 -2.09,2.43 -2.95,3.79 -0.87,1.39 -1.63,2.93 -2.3,4.61 -0.64,1.64 -1.13,3.4 -1.45,5.26 -0.34,1.88 -0.5,3.87 -0.5,5.99 0,0.57 0.01,1.06 0.03,1.5 0.02,0.42 0.07,1.03 0.13,1.76 0.05,0.61 0.11,1.23 0.18,1.84 0.08,0.65 0.16,1.26 0.26,1.8 0.11,0.59 0.23,1.18 0.36,1.77l26.67 -35.36z"/>
</svg>
